<svg xmlns="http://www.w3.org/2000/svg" width="19" height="21" viewBox="0 0 19 21">
    <g fill="none" fill-rule="evenodd">
      <path fill="#000" d="M17.799 12.494l-.253 4.028h.68l.253-4.028zM1.198 14.564c-.002-.016-.018-.026-.018-.043 0-.01.011-.017.013-.028l-.164-1.986H.35l.33 4.028h.681l-.162-1.971zM9.445 1.583c1.291 0 2.67 2.656 2.705 6.623l-2.776.012-2.634.01 2.634-.01-2.634.01c.029-3.98 1.411-6.645 2.705-6.645zm3.383 6.62C12.792 4.1 11.32.905 9.445.905c-1.88 0-3.355 3.209-3.384 7.327h-.01L0 8.257l.3 3.675h.68l-.245-3 17.29-.073-.191 3.06h.68l.235-3.74-5.922.024z"/>
      <path d="M9.375 8.218l-2.636.01M9.375 8.218l2.646-.01"/>
      <path fill="#000" d="M17.399 18.867c.102.045.184.127.184.246 0 .13-.096.221-.216.257l-.051.828H1.66l-.064-.785H1.47a.288.288 0 0 1 0-.575h.08l-.141-1.727H.727l.308 3.766h16.917l.238-3.78h-.68l-.111 1.77zM7.51 13.37V11.07a.288.288 0 0 0-.575 0v2.301a.287.287 0 1 0 .576 0M5.784 14.521c0 .16.13.288.288.288h2.302a.287.287 0 1 0 0-.575H6.072a.288.288 0 0 0-.288.287M1.469 14.81H3.77a.288.288 0 0 0 0-.576H1.47a.282.282 0 0 0-.276.259c-.002.011-.012.017-.012.029 0 .016.014.026.017.042.024.136.128.245.27.245M2.62 10.78c-.16 0-.288.13-.288.288v2.302a.287.287 0 1 0 .575 0v-2.302a.288.288 0 0 0-.287-.287"/>
      <path fill="#000" d="M6.935 15.672v2.302a.288.288 0 0 0 .576 0v-2.302a.288.288 0 0 0-.576 0M2.62 15.384c-.16 0-.288.13-.288.288v2.302a.287.287 0 1 0 .575 0v-2.302a.288.288 0 0 0-.287-.288M4.634 13.37v2.302a.288.288 0 0 0 .575 0V13.37a.287.287 0 1 0-.575 0M6.36 12.22c0-.16-.13-.288-.288-.288H3.771a.287.287 0 1 0 0 .575h2.301a.288.288 0 0 0 .288-.287M6.36 16.823c0-.159-.13-.287-.288-.287H3.771a.287.287 0 1 0 0 .575h2.301a.288.288 0 0 0 .288-.288M4.921 17.687c-.158 0-.288.152-.288.34v1.364c0 .188.13.341.288.341.16 0 .288-.153.288-.34v-1.365c0-.188-.129-.34-.288-.34M8.374 18.837H6.072a.287.287 0 1 0 0 .576h2.302a.287.287 0 1 0 0-.576M4.058 19.125a.287.287 0 0 0-.288-.288H1.47a.287.287 0 1 0 0 .576H3.77c.16 0 .288-.129.288-.288M4.921 11.352c.16 0 .288-.151.288-.338V9.667c0-.186-.129-.337-.288-.337-.158 0-.288.15-.288.337v1.347c0 .187.13.338.288.338M4.058 9.918a.288.288 0 0 0-.288-.288H1.47a.288.288 0 0 0 0 .575H3.77c.16 0 .288-.128.288-.287M6.072 10.206h2.302a.288.288 0 0 0 0-.576H6.072a.287.287 0 1 0 0 .576M9.733 15.699v-2.302a.288.288 0 0 0-.575 0v2.302a.288.288 0 0 0 .575 0M10.596 11.958H8.295a.287.287 0 1 0 0 .575h2.301a.288.288 0 0 0 0-.575M8.007 16.85c0 .158.128.287.287.287h2.302a.288.288 0 0 0 0-.575H8.294a.287.287 0 0 0-.287.287M9.445 17.718c-.158 0-.288.152-.288.34v1.364c0 .188.13.341.288.341.16 0 .288-.153.288-.34v-1.365c0-.188-.129-.34-.288-.34M9.445 11.382c.16 0 .288-.15.288-.337V9.698c0-.187-.129-.338-.288-.338-.158 0-.288.151-.288.338v1.347c0 .186.13.337.288.337M1.473 12.507a.288.288 0 0 0 0-.575H.301l.048.575h1.124zM1.473 17.11a.288.288 0 0 0 0-.574H.68l.047.575h.746zM11.983 13.37V11.07a.287.287 0 1 0-.575 0v2.301a.287.287 0 1 0 .575 0M10.257 14.521c0 .16.13.288.288.288h2.301a.287.287 0 1 0 0-.575h-2.301a.288.288 0 0 0-.288.287M11.408 15.672v2.302a.287.287 0 1 0 .576 0v-2.302a.288.288 0 0 0-.576 0M12.847 18.837h-2.302a.287.287 0 1 0 0 .576h2.302a.287.287 0 1 0 0-.576M10.545 10.206h2.302a.288.288 0 0 0 0-.576h-2.302a.287.287 0 1 0 0 .576M13.606 13.384v2.301a.288.288 0 0 0 .575 0v-2.301a.287.287 0 1 0-.575 0M15.332 12.232a.288.288 0 0 0-.288-.287h-2.301a.288.288 0 0 0 0 .575h2.301a.288.288 0 0 0 .288-.288M15.045 16.549h-2.302a.288.288 0 0 0 0 .575h2.302a.288.288 0 0 0 0-.575M13.894 17.702c-.16 0-.288.152-.288.34v1.365c0 .188.128.34.288.34.158 0 .287-.152.287-.34v-1.365c0-.188-.129-.34-.287-.34M13.894 11.367c.158 0 .287-.15.287-.337V9.683c0-.187-.129-.338-.287-.338-.16 0-.288.151-.288.338v1.347c0 .186.128.337.288.337M16.432 13.358v-2.302a.288.288 0 0 0-.575 0v2.302a.288.288 0 0 0 .575 0M14.706 14.508c0 .16.128.288.287.288h2.302a.287.287 0 1 0 0-.575h-2.302a.287.287 0 0 0-.287.287M16.144 15.372a.287.287 0 0 0-.288.287v2.302a.287.287 0 1 0 .576 0V15.66a.287.287 0 0 0-.288-.287M14.993 18.824a.288.288 0 0 0 0 .576h2.302c.028 0 .047-.023.072-.03.12-.036.216-.128.216-.258 0-.119-.082-.2-.184-.244-.035-.016-.063-.044-.104-.044h-2.302zM14.993 10.192h2.302a.287.287 0 1 0 0-.575h-2.302a.287.287 0 1 0 0 .575M17.266 11.919a.288.288 0 0 0 0 .575h1.213l.036-.575h-1.249zM17.266 16.523a.288.288 0 0 0 0 .575h.924l.036-.575H17.266z"/>
    </g>
  </svg>